<?xml version="1.0" encoding="UTF-8" standalone="no"?>
<!-- Created with Inkscape (http://www.inkscape.org/) -->

<svg
   xmlns:dc="http://purl.org/dc/elements/1.1/"
   xmlns:cc="http://creativecommons.org/ns#"
   xmlns:rdf="http://www.w3.org/1999/02/22-rdf-syntax-ns#"
   xmlns:svg="http://www.w3.org/2000/svg"
   xmlns="http://www.w3.org/2000/svg"
   xmlns:sodipodi="http://sodipodi.sourceforge.net/DTD/sodipodi-0.dtd"
   xmlns:inkscape="http://www.inkscape.org/namespaces/inkscape"
   width="600"
   height="600"
   id="svg2"
   version="1.1"
   inkscape:version="0.48.4 r9939"
   sodipodi:docname="New document 1">
  <defs
     id="defs4" />
  <sodipodi:namedview
     id="base"
     pagecolor="#ffffff"
     bordercolor="#666666"
     borderopacity="1.0"
     inkscape:pageopacity="0.0"
     inkscape:pageshadow="2"
     inkscape:zoom="0.25600586"
     inkscape:cx="435.53679"
     inkscape:cy="567.41335"
     inkscape:document-units="px"
     inkscape:current-layer="layer1"
     showgrid="false"
     inkscape:window-width="1600"
     inkscape:window-height="876"
     inkscape:window-x="0"
     inkscape:window-y="24"
     inkscape:window-maximized="1" />
  <metadata
     id="metadata7">
    <rdf:RDF>
      <cc:Work
         rdf:about="">
        <dc:format>image/svg+xml</dc:format>
        <dc:type
           rdf:resource="http://purl.org/dc/dcmitype/StillImage" />
        <dc:title></dc:title>
      </cc:Work>
    </rdf:RDF>
  </metadata>
  <g
     inkscape:label="Layer 1"
     inkscape:groupmode="layer"
     id="layer1"
     transform="translate(0,-452.36215)">
    <path
       style="fill:#000000;fill-opacity:1;stroke:#000000;stroke-width:1px;stroke-linecap:butt;stroke-linejoin:miter;stroke-opacity:1"
       d="m 190.47789,568.96001 c 0,0 -33.20237,90.81824 -37.10853,124.99714 -3.90616,34.17891 -5.85924,87.40035 3.90616,148.43411 9.76541,61.03376 41.8151,108.51934 70.31089,135.73908 28.73814,27.45126 78.12322,59.56896 78.12322,59.56896 l 46.87392,-45.8974 c 0,0 -62.68455,-17.75261 -96.67747,-53.70971 -33.99292,-35.9571 -53.47276,-59.98187 -65.42819,-126.95022 -11.95543,-66.96835 -12.69502,-96.06478 -9.7654,-146.48102 2.92962,-50.41624 10.74194,-79.09975 14.6481,-83.98245 3.90616,-4.8827 -4.8827,-11.71849 -4.8827,-11.71849 z"
       id="path2998"
       inkscape:connector-curvature="0"
       sodipodi:nodetypes="cszscczzzsc" />
    <path
       style="fill:#000000;fill-opacity:1;stroke:#000000;stroke-width:1px;stroke-linecap:butt;stroke-linejoin:miter;stroke-opacity:1"
       d="m 384.61862,964.66638 c 0,0 58.90088,-80.55067 66.98026,-158.12866 7.67555,-73.7005 5.12266,-92.40504 -8.28622,-147.77089 C 423.82083,578.28419 377.90131,527.23329 327.30561,498.56662 267.54007,464.70447 261.15498,468.25431 261.15498,468.25431 l -41.38089,47.60633 c 0,0 72.84639,21.34804 104.76945,45.54313 45.14937,34.21956 59.80937,52.70791 79.40958,112.55446 19.60021,59.84655 25.74372,97.26233 16.57244,158.81918 -9.17128,61.55685 -39.86648,129.48415 -39.86648,129.48415 0,0 -1.04672,2.66376 0.16169,3.61322 1.2084,0.94947 3.79785,-1.2084 3.79785,-1.2084 z"
       id="path3770"
       inkscape:connector-curvature="0"
       sodipodi:nodetypes="csssccszzcsc" />
    <path
       style="fill:#000000;fill-opacity:1;stroke:#000000;stroke-width:1px;stroke-linecap:butt;stroke-linejoin:miter;stroke-opacity:1"
       d="m 268.6011,904.40156 c 0,0 -10.93915,-41.97766 -10.74194,-75.68187 0.28602,-48.88203 16.05998,-92.6393 17.08945,-161.12912 0.72602,-48.30166 -14.69717,-64.98899 -25.39004,-75.19359 -5.75016,-5.48759 -15.13637,-10.74194 -15.13637,-10.74194 0,0 6.39904,17.16877 7.81232,62.49857 1.41328,45.3298 -29.61693,99.05784 -27.66385,152.4037 1.95308,53.34587 20.3398,84.40728 31.08174,94.66095 10.74194,10.25368 22.94869,13.1833 22.94869,13.1833 z"
       id="path3772"
       inkscape:connector-curvature="0"
       sodipodi:nodetypes="csssczzsc" />
    <path
       style="fill:#000000;fill-opacity:1;stroke:#000000;stroke-width:1px;stroke-linecap:butt;stroke-linejoin:miter;stroke-opacity:1"
       d="m 285.20228,753.03783 c 0,0 65.91646,20.50735 63.47511,72.75224 -2.44135,52.2449 -57.1276,81.05284 -57.1276,81.05284 0,0 41.50296,4.39443 69.82263,-20.99562 28.31966,-25.39004 37.65614,-38.17715 38.57333,-57.1276 0.81965,-16.93516 -7.81232,-37.59679 -36.13198,-54.68624 -28.31967,-17.08946 -57.61587,-25.87832 -66.893,-26.36659 -9.27714,-0.48827 -11.71849,5.37097 -11.71849,5.37097 z"
       id="path3774"
       inkscape:connector-curvature="0"
       sodipodi:nodetypes="cscssssc" />
  </g>
</svg>
